<mxfile host="65bd71144e">
    <diagram id="KUBS3LpGTh-H3slircqg" name="PÃ¡gina-1">
        <mxGraphModel dx="833" dy="331" grid="1" gridSize="10" guides="1" tooltips="1" connect="1" arrows="1" fold="1" page="1" pageScale="1" pageWidth="827" pageHeight="1169" background="#000000" math="0" shadow="0">
            <root>
                <mxCell id="0"/>
                <mxCell id="1" parent="0"/>
                <mxCell id="9" value="usuarios" style="swimlane;fontStyle=1;childLayout=stackLayout;horizontal=1;startSize=26;horizontalStack=0;resizeParent=1;resizeParentMax=0;resizeLast=0;collapsible=1;marginBottom=0;whiteSpace=wrap;html=1;strokeColor=#FFFFFF;" parent="1" vertex="1">
                    <mxGeometry x="20" y="30" width="150" height="130" as="geometry"/>
                </mxCell>
                <mxCell id="10" value="id: UID" style="text;strokeColor=#FFFFFF;fillColor=none;align=left;verticalAlign=top;spacingLeft=4;spacingRight=4;overflow=hidden;rotatable=0;points=[[0,0.5],[1,0.5]];portConstraint=eastwest;whiteSpace=wrap;html=1;fontStyle=1;fontColor=#FFFFFF;" parent="9" vertex="1">
                    <mxGeometry y="26" width="150" height="26" as="geometry"/>
                </mxCell>
                <mxCell id="11" value="nome: String" style="text;strokeColor=#FCFCFC;fillColor=none;align=left;verticalAlign=top;spacingLeft=4;spacingRight=4;overflow=hidden;rotatable=0;points=[[0,0.5],[1,0.5]];portConstraint=eastwest;whiteSpace=wrap;html=1;fontStyle=1;fontColor=#FFFFFF;" parent="9" vertex="1">
                    <mxGeometry y="52" width="150" height="26" as="geometry"/>
                </mxCell>
                <mxCell id="12" value="sexo: String" style="text;strokeColor=none;fillColor=none;align=left;verticalAlign=top;spacingLeft=4;spacingRight=4;overflow=hidden;rotatable=0;points=[[0,0.5],[1,0.5]];portConstraint=eastwest;whiteSpace=wrap;html=1;fontStyle=1;fontColor=#FFFFFF;" parent="9" vertex="1">
                    <mxGeometry y="78" width="150" height="26" as="geometry"/>
                </mxCell>
                <mxCell id="14" value="criado_em: DateTime" style="text;strokeColor=#FFFFFF;fillColor=none;align=left;verticalAlign=top;spacingLeft=4;spacingRight=4;overflow=hidden;rotatable=0;points=[[0,0.5],[1,0.5]];portConstraint=eastwest;whiteSpace=wrap;html=1;fontStyle=1;fontColor=#FFFFFF;" parent="9" vertex="1">
                    <mxGeometry y="104" width="150" height="26" as="geometry"/>
                </mxCell>
                <mxCell id="15" value="&lt;font style=&quot;color: rgb(51, 0, 26);&quot;&gt;perguntas&lt;/font&gt;" style="swimlane;fontStyle=1;childLayout=stackLayout;horizontal=1;startSize=26;horizontalStack=0;resizeParent=1;resizeParentMax=0;resizeLast=0;collapsible=1;marginBottom=0;whiteSpace=wrap;html=1;fontColor=#FFFFFF;" parent="1" vertex="1">
                    <mxGeometry x="210" y="230" width="150" height="104" as="geometry"/>
                </mxCell>
                <mxCell id="16" value="id: UID" style="text;align=left;verticalAlign=top;spacingLeft=4;spacingRight=4;overflow=hidden;rotatable=0;points=[[0,0.5],[1,0.5]];portConstraint=eastwest;whiteSpace=wrap;html=1;fontStyle=1;fontColor=#FFFFFF;strokeColor=#FFFFFF;" parent="15" vertex="1">
                    <mxGeometry y="26" width="150" height="26" as="geometry"/>
                </mxCell>
                <mxCell id="18" value="coluna_dataset: String" style="text;align=left;verticalAlign=top;spacingLeft=4;spacingRight=4;overflow=hidden;rotatable=0;points=[[0,0.5],[1,0.5]];portConstraint=eastwest;whiteSpace=wrap;html=1;fontStyle=1;fontColor=#FFFFFF;strokeColor=#FFFFFF;" parent="15" vertex="1">
                    <mxGeometry y="52" width="150" height="26" as="geometry"/>
                </mxCell>
                <mxCell id="19" value="texto_pergunta: String" style="text;align=left;verticalAlign=top;spacingLeft=4;spacingRight=4;overflow=hidden;rotatable=0;points=[[0,0.5],[1,0.5]];portConstraint=eastwest;whiteSpace=wrap;html=1;fontStyle=1;fontColor=#FFFFFF;strokeColor=#FFFFFF;" parent="15" vertex="1">
                    <mxGeometry y="78" width="150" height="26" as="geometry"/>
                </mxCell>
                <mxCell id="32" value="&lt;font style=&quot;color: rgb(51, 0, 26);&quot;&gt;respostas&lt;/font&gt;" style="swimlane;fontStyle=1;childLayout=stackLayout;horizontal=1;startSize=26;horizontalStack=0;resizeParent=1;resizeParentMax=0;resizeLast=0;collapsible=1;marginBottom=0;whiteSpace=wrap;html=1;fontColor=#FFFFFF;strokeColor=#FFFFFF;" parent="1" vertex="1">
                    <mxGeometry x="400" y="30" width="150" height="364" as="geometry"/>
                </mxCell>
                <mxCell id="33" value="id: UID" style="text;align=left;verticalAlign=top;spacingLeft=4;spacingRight=4;overflow=hidden;rotatable=0;points=[[0,0.5],[1,0.5]];portConstraint=eastwest;whiteSpace=wrap;html=1;fontStyle=1;fontColor=#FFFFFF;" parent="32" vertex="1">
                    <mxGeometry y="26" width="150" height="26" as="geometry"/>
                </mxCell>
                <mxCell id="34" value="id_usuario: UID" style="text;align=left;verticalAlign=top;spacingLeft=4;spacingRight=4;overflow=hidden;rotatable=0;points=[[0,0.5],[1,0.5]];portConstraint=eastwest;whiteSpace=wrap;html=1;fontStyle=1;fontColor=#FFFFFF;" parent="32" vertex="1">
                    <mxGeometry y="52" width="150" height="26" as="geometry"/>
                </mxCell>
                <mxCell id="35" value="resposta_01: Integer" style="text;align=left;verticalAlign=top;spacingLeft=4;spacingRight=4;overflow=hidden;rotatable=0;points=[[0,0.5],[1,0.5]];portConstraint=eastwest;whiteSpace=wrap;html=1;fontStyle=1;fontColor=#FFFFFF;" parent="32" vertex="1">
                    <mxGeometry y="78" width="150" height="26" as="geometry"/>
                </mxCell>
                <mxCell id="36" value="&lt;span style=&quot;&quot;&gt;&lt;font style=&quot;color: rgb(252, 252, 252);&quot;&gt;resposta_02: Float&lt;/font&gt;&lt;/span&gt;" style="text;align=left;verticalAlign=top;spacingLeft=4;spacingRight=4;overflow=hidden;rotatable=0;points=[[0,0.5],[1,0.5]];portConstraint=eastwest;whiteSpace=wrap;html=1;fontStyle=1;fontColor=#FFFFFF;" parent="32" vertex="1">
                    <mxGeometry y="104" width="150" height="26" as="geometry"/>
                </mxCell>
                <mxCell id="37" value="&lt;span style=&quot;&quot;&gt;&lt;font style=&quot;color: rgb(255, 255, 255);&quot;&gt;resposta_03: Integer&lt;/font&gt;&lt;/span&gt;" style="text;align=left;verticalAlign=top;spacingLeft=4;spacingRight=4;overflow=hidden;rotatable=0;points=[[0,0.5],[1,0.5]];portConstraint=eastwest;whiteSpace=wrap;html=1;fontStyle=1;fontColor=#FFFFFF;" parent="32" vertex="1">
                    <mxGeometry y="130" width="150" height="26" as="geometry"/>
                </mxCell>
                <mxCell id="38" value="&lt;span style=&quot;&quot;&gt;&lt;font style=&quot;color: rgb(252, 252, 252);&quot;&gt;resposta_04: Integer&lt;/font&gt;&lt;/span&gt;" style="text;align=left;verticalAlign=top;spacingLeft=4;spacingRight=4;overflow=hidden;rotatable=0;points=[[0,0.5],[1,0.5]];portConstraint=eastwest;whiteSpace=wrap;html=1;fontStyle=1;fontColor=#FFFFFF;" parent="32" vertex="1">
                    <mxGeometry y="156" width="150" height="26" as="geometry"/>
                </mxCell>
                <mxCell id="39" value="&lt;span style=&quot;&quot;&gt;&lt;font style=&quot;color: rgb(255, 255, 255);&quot;&gt;resposta_05: Integer&lt;/font&gt;&lt;/span&gt;" style="text;align=left;verticalAlign=top;spacingLeft=4;spacingRight=4;overflow=hidden;rotatable=0;points=[[0,0.5],[1,0.5]];portConstraint=eastwest;whiteSpace=wrap;html=1;fontStyle=1;fontColor=#FFFFFF;" parent="32" vertex="1">
                    <mxGeometry y="182" width="150" height="26" as="geometry"/>
                </mxCell>
                <mxCell id="40" value="&lt;span style=&quot;&quot;&gt;&lt;font style=&quot;color: rgb(255, 255, 255);&quot;&gt;resposta_06: Integer&lt;/font&gt;&lt;/span&gt;" style="text;align=left;verticalAlign=top;spacingLeft=4;spacingRight=4;overflow=hidden;rotatable=0;points=[[0,0.5],[1,0.5]];portConstraint=eastwest;whiteSpace=wrap;html=1;fontStyle=1;fontColor=#FFFFFF;" parent="32" vertex="1">
                    <mxGeometry y="208" width="150" height="26" as="geometry"/>
                </mxCell>
                <mxCell id="42" value="&lt;span style=&quot;&quot;&gt;&lt;font style=&quot;color: rgb(252, 252, 252);&quot;&gt;resposta_07: Integer&lt;/font&gt;&lt;/span&gt;" style="text;align=left;verticalAlign=top;spacingLeft=4;spacingRight=4;overflow=hidden;rotatable=0;points=[[0,0.5],[1,0.5]];portConstraint=eastwest;whiteSpace=wrap;html=1;fontStyle=1;fontColor=#FFFFFF;" parent="32" vertex="1">
                    <mxGeometry y="234" width="150" height="26" as="geometry"/>
                </mxCell>
                <mxCell id="43" value="&lt;span style=&quot;&quot;&gt;&lt;font style=&quot;color: rgb(255, 255, 255);&quot;&gt;resposta_08: Float&lt;/font&gt;&lt;/span&gt;" style="text;align=left;verticalAlign=top;spacingLeft=4;spacingRight=4;overflow=hidden;rotatable=0;points=[[0,0.5],[1,0.5]];portConstraint=eastwest;whiteSpace=wrap;html=1;fontStyle=1;fontColor=#FFFFFF;" parent="32" vertex="1">
                    <mxGeometry y="260" width="150" height="26" as="geometry"/>
                </mxCell>
                <mxCell id="44" value="&lt;span style=&quot;&quot;&gt;&lt;font style=&quot;color: rgb(252, 252, 252);&quot;&gt;resposta_09: Integer&lt;/font&gt;&lt;/span&gt;" style="text;align=left;verticalAlign=top;spacingLeft=4;spacingRight=4;overflow=hidden;rotatable=0;points=[[0,0.5],[1,0.5]];portConstraint=eastwest;whiteSpace=wrap;html=1;fontStyle=1;fontColor=#FFFFFF;" parent="32" vertex="1">
                    <mxGeometry y="286" width="150" height="26" as="geometry"/>
                </mxCell>
                <mxCell id="45" value="&lt;span style=&quot;&quot;&gt;&lt;font style=&quot;color: rgb(255, 255, 255);&quot;&gt;resposta_10: Float&lt;/font&gt;&lt;/span&gt;" style="text;align=left;verticalAlign=top;spacingLeft=4;spacingRight=4;overflow=hidden;rotatable=0;points=[[0,0.5],[1,0.5]];portConstraint=eastwest;whiteSpace=wrap;html=1;fontStyle=1;fontColor=#FFFFFF;" parent="32" vertex="1">
                    <mxGeometry y="312" width="150" height="26" as="geometry"/>
                </mxCell>
                <mxCell id="60" value="&lt;span style=&quot;&quot;&gt;&lt;font style=&quot;color: rgb(252, 252, 252);&quot;&gt;criado_em: DateTime&lt;/font&gt;&lt;/span&gt;" style="text;align=left;verticalAlign=top;spacingLeft=4;spacingRight=4;overflow=hidden;rotatable=0;points=[[0,0.5],[1,0.5]];portConstraint=eastwest;whiteSpace=wrap;html=1;fontStyle=1;fontColor=#FFFFFF;" parent="32" vertex="1">
                    <mxGeometry y="338" width="150" height="26" as="geometry"/>
                </mxCell>
                <mxCell id="46" value="&lt;font style=&quot;color: rgb(51, 0, 26);&quot;&gt;resultados&lt;/font&gt;" style="swimlane;fontStyle=1;childLayout=stackLayout;horizontal=1;startSize=26;horizontalStack=0;resizeParent=1;resizeParentMax=0;resizeLast=0;collapsible=1;marginBottom=0;whiteSpace=wrap;html=1;strokeColor=#FFFFFF;" parent="1" vertex="1">
                    <mxGeometry x="210" y="30" width="150" height="130" as="geometry"/>
                </mxCell>
                <mxCell id="47" value="id: UID" style="text;align=left;verticalAlign=top;spacingLeft=4;spacingRight=4;overflow=hidden;rotatable=0;points=[[0,0.5],[1,0.5]];portConstraint=eastwest;whiteSpace=wrap;html=1;fontStyle=1;fontColor=#FFFFFF;" parent="46" vertex="1">
                    <mxGeometry y="26" width="150" height="26" as="geometry"/>
                </mxCell>
                <mxCell id="48" value="id_usuarios: UID" style="text;align=left;verticalAlign=top;spacingLeft=4;spacingRight=4;overflow=hidden;rotatable=0;points=[[0,0.5],[1,0.5]];portConstraint=eastwest;whiteSpace=wrap;html=1;fontStyle=1;fontColor=#FFFFFF;strokeColor=#FFFFFF;" parent="46" vertex="1">
                    <mxGeometry y="52" width="150" height="26" as="geometry"/>
                </mxCell>
                <mxCell id="49" value="resultado: Integer" style="text;align=left;verticalAlign=top;spacingLeft=4;spacingRight=4;overflow=hidden;rotatable=0;points=[[0,0.5],[1,0.5]];portConstraint=eastwest;whiteSpace=wrap;html=1;fontStyle=1;fontColor=#FFFFFF;strokeColor=#FCFCFC;" parent="46" vertex="1">
                    <mxGeometry y="78" width="150" height="26" as="geometry"/>
                </mxCell>
                <mxCell id="59" value="&lt;span style=&quot;&quot;&gt;&lt;font style=&quot;color: rgb(252, 252, 252);&quot;&gt;criado_em: DateTime&lt;/font&gt;&lt;/span&gt;" style="text;align=left;verticalAlign=top;spacingLeft=4;spacingRight=4;overflow=hidden;rotatable=0;points=[[0,0.5],[1,0.5]];portConstraint=eastwest;whiteSpace=wrap;html=1;fontStyle=1;fontColor=#FFFFFF;" parent="46" vertex="1">
                    <mxGeometry y="104" width="150" height="26" as="geometry"/>
                </mxCell>
                <mxCell id="53" value="" style="endArrow=block;startArrow=block;endFill=1;startFill=1;html=1;exitX=1;exitY=0.5;exitDx=0;exitDy=0;entryX=0;entryY=0.5;entryDx=0;entryDy=0;fontStyle=1;fontColor=#FFFFFF;strokeColor=#FCFCFC;" parent="1" edge="1">
                    <mxGeometry width="160" relative="1" as="geometry">
                        <mxPoint x="170" y="44" as="sourcePoint"/>
                        <mxPoint x="210" y="44" as="targetPoint"/>
                        <Array as="points"/>
                    </mxGeometry>
                </mxCell>
                <mxCell id="50" style="edgeStyle=none;html=1;exitX=0;exitY=0.5;exitDx=0;exitDy=0;entryX=0.662;entryY=1.108;entryDx=0;entryDy=0;entryPerimeter=0;fontStyle=1;fontColor=#FFFFFF;strokeColor=#FFFFFF;" parent="1" source="38" target="14" edge="1">
                    <mxGeometry relative="1" as="geometry">
                        <Array as="points">
                            <mxPoint x="119" y="200"/>
                        </Array>
                    </mxGeometry>
                </mxCell>
                <mxCell id="57" value="" style="endArrow=block;startArrow=block;endFill=1;startFill=1;html=1;exitX=0;exitY=0.059;exitDx=0;exitDy=0;exitPerimeter=0;entryX=1;entryY=0.192;entryDx=0;entryDy=0;entryPerimeter=0;fontStyle=1;fontColor=#FFFFFF;strokeColor=#FFFFFF;" parent="1" edge="1">
                    <mxGeometry width="160" relative="1" as="geometry">
                        <mxPoint x="400" y="44.94200000000001" as="sourcePoint"/>
                        <mxPoint x="360" y="44.96800000000002" as="targetPoint"/>
                        <Array as="points"/>
                    </mxGeometry>
                </mxCell>
                <mxCell id="58" style="edgeStyle=none;html=1;exitX=0;exitY=0.5;exitDx=0;exitDy=0;fontStyle=1;fontColor=#FFFFFF;strokeColor=#FCFCFC;" parent="1" source="40" edge="1">
                    <mxGeometry relative="1" as="geometry">
                        <mxPoint x="364" y="251" as="targetPoint"/>
                    </mxGeometry>
                </mxCell>
            </root>
        </mxGraphModel>
    </diagram>
</mxfile>